<svg width="160" height="138" fill="none" xmlns="http://www.w3.org/2000/svg"><g clip-path="url(#clip0)"><path d="M43.937 138.196c24.265 0 43.937-6.152 43.937-13.741 0-7.589-19.672-13.741-43.937-13.741C19.67 110.714 0 116.866 0 124.455c0 7.589 19.671 13.741 43.937 13.741Zm90.207-3.141c9.77 0 17.691-2.46 17.691-5.496 0-3.036-7.921-5.497-17.691-5.497-9.771 0-17.692 2.461-17.692 5.497s7.921 5.496 17.692 5.496Z" fill="#CBCBCB"/><path d="M11.082 17.667c.194.393-5.638 32.783-10.304 58.694-3.305 18.65 5.832 37.298 22.551 46.131 19.053 9.815 42.576 4.123 55.019-13.348l6.61-9.423-73.876-82.054Z" fill="#0F462D"/><path d="M12.83 12.17c-2.526 5.497-3.11 11.779-3.498 17.668-.973 11.582-1.945 23.36-1.556 35.138.195 9.619-1.166 19.237 2.722 28.464 3.305 8.048 8.554 14.526 15.942 19.041 21.774 13.152 57.934 6.674 61.045-22.771 1.555-13.741-3.5-28.268-11.665-39.26-8.748-11.779-14.97-25.716-21.385-38.672C50.547 4.122 44.909-1.963 35.577.393c-1.36.392-2.527 1.374-3.888 1.766-1.167.393-2.722-.196-4.083-.196-6.61-.196-12.053 4.515-14.775 10.208Z" fill="#06C167"/><path d="M50.741 114.836c-7.97 0-15.941-2.159-22.163-5.889-6.415-3.926-11.081-9.422-14.192-17.078-2.721-6.282-2.721-12.956-2.527-20.219v-6.674c-.194-11.386.583-23.164 1.555-34.55.39-5.692.972-11.581 3.11-16.489 1.75-3.73 5.444-7.852 10.499-7.852h.389c.389 0 .777 0 1.166.197.584.196 1.361.196 2.333.196.583 0 1.167 0 1.556-.196 1.166-.197 2.138-.786 2.916-1.178.389-.196.777-.393.972-.393 1.166-.196 2.138-.392 3.11-.392 2.722 0 6.805.981 11.082 9.618 1.166 2.356 2.333 4.908 3.694 7.264 5.249 10.796 10.886 22.182 18.274 31.997 8.165 10.796 12.248 24.537 10.887 36.315-1.944 18.649-18.858 25.323-32.66 25.323Z" fill="#ADDEC9"/><path d="M69.988 82.054 46.075 48.486c-2.138-2.944-6.61-2.159-7.582 1.178l-1.36 4.123 23.134 32.39c.778 1.177.972 2.551.583 3.73l6.416-1.179c3.11-.392 4.666-4.122 2.722-6.674Z" fill="#05A357"/><path d="M60.267 86.176 37.132 53.59l-11.47 36.316c-.972 3.14 1.75 6.085 4.86 5.497l30.328-5.497c.39-1.178.39-2.552-.583-3.73Z" fill="#06C167"/><path d="M157.989 70.728c5.544-15.038-.648-31.245-13.83-36.2-13.182-4.956-28.363 3.218-33.907 18.255-5.545 15.038.647 31.245 13.829 36.2 13.182 4.956 28.363-3.218 33.908-18.255Z" fill="#B18977"/><path d="M150.474 38.083c2.332 6.281 2.527 13.74 0 21.004-5.25 15.115-20.414 23.752-33.633 19.041-2.528-.981-4.861-2.16-6.805-3.926 2.527 6.87 7.582 12.563 14.581 14.919 13.414 4.711 28.384-3.926 33.633-19.041 4.083-12.171.583-24.93-7.776-31.997Z" fill="#99644C"/></g><defs><clipPath id="clip0"><path fill="#fff" d="M0 0h160v138H0z"/></clipPath></defs></svg>