<svg width="558" height="372" viewBox="0 0 558 372" fill="none" xmlns="http://www.w3.org/2000/svg">
<g clip-path="url(#clip0)">
<g clip-path="url(#clip1)">
<path d="M558 0H0V372H558V0Z" fill="white"/>
<path d="M558 0H0V372H558V0Z" fill="white"/>
<path d="M524.7 19.3H260.7C231.9 19.3 204.4 30.7 184.2 51L146.8 88.5C126.4 108.8 98.9 120.2 70.3 120.2H0V372H558V14C547.3 17.5 536.1 19.3 524.7 19.3Z" fill="#EEEEEE"/>
<path d="M470.4 266.5C466.3 258.2 463.6 249.5 463.6 240.2L384.3 242.5C384.3 251.7 383.2 260.8 383.2 270C383.2 272.3 383.3 274.6 383.4 276.8H442.2H459.8H476.2C474.1 273.4 472.1 270 470.4 266.5Z" fill="black"/>
<path d="M400.2 372H481.1C481.4 370.9 481.9 369.7 482.4 368.7C485.5 363.1 491.4 349.1 491.4 325.4C491.4 314.7 489.5 303.9 485.3 294C482.7 288 479.3 282.4 476 276.8H383.2C384.3 295.9 389.8 315.3 393.2 334C395.6 346.7 397.9 359.3 400.2 372Z" fill="black"/>
<path d="M453.7 28.5H401.9V143.7H453.7V28.5Z" fill="#5C3C2E"/>
<path d="M460.7 28.5H408.9V143.7H460.7V28.5Z" fill="#3D281E"/>
<path d="M444 71.2L455.6 95.2L466.2 125.6V43.9C466.2 43.7 466.2 43.4 466.1 43.2C466.1 42.1 465.9 41.1 465.7 40C465.7 39.8 465.6 39.5 465.5 39.3C465.5 39.1 465.4 38.9 465.4 38.7C461.1 17.2 440.4 1.79996 419 5.49996C418.6 5.59996 418.2 5.59996 417.8 5.69996C414.9 6.29996 412.2 7.19996 409.5 8.49996L409.4 8.59996C406.7 9.89996 404.1 11.4 401.7 13.2L385.1 23.1C379.4 26.7 376.1 33.6 377.5 40.6C378.4 45.2 381.1 48.9 384.7 51.3C384.2 47.9 383.9 42.7 385.2 37.6C385.3 37.4 385.1 38.1 385.2 37.9C385.3 37.6 385.3 37.4 385.4 37.1L395.6 41.9C399.3 44.1 403.2 46 407.2 47.6L444 71.2Z" fill="#744C3A"/>
<path d="M453.5 79.6001L437 93.8001L427.7 102.2C419.6 113.7 409.9 127 401.8 138.5C395.3 147.7 384.7 157.9 386.4 170.3C387 174.7 389.4 178.9 390.6 183.2C392 187.9 392.9 192.8 393.5 197.7C395.2 212.6 392.5 227.9 383.8 240.3L469.4 238.1C469 232.3 469.3 226.2 470.1 223.8L483.9 184.4C485.1 181.2 485.7 177.8 485.7 174.3V132.7C485.8 125.2 486.2 116.5 475.9 105.1C474.3 103.3 453.5 79.6001 453.5 79.6001Z" fill="#156A41"/>
<path d="M463.6 240.2L384.3 242.5C378.9 253.4 377.5 264.9 379.2 276.8H425.8C435.8 276.8 444.8 270.9 448.9 261.8L451.1 256.9L453.3 261.8C457.3 270.9 466.4 276.8 476.4 276.8C474.4 273.4 472.4 270 470.7 266.5C466.3 258.2 463.6 249.5 463.6 240.2Z" fill="#156A41"/>
<path d="M325.8 194.7C325.8 191.5 328.4 188.8 331.7 188.8C334.9 188.8 337.6 191.4 337.6 194.7C337.6 198 335 200.6 331.7 200.6C328.4 200.5 325.8 197.9 325.8 194.7Z" fill="#05A357"/>
<path d="M343.8 195.4C345.2 195.4 346.4 194.2 346.4 192.8C346.4 191.4 345.2 190.2 343.8 190.2C342.4 190.2 341.2 191.4 341.2 192.8C341.2 194.2 342.4 195.4 343.8 195.4Z" fill="#05A357"/>
<path d="M311.3 214.1H376.2L369.8 205.5C356.8 188 330.6 188 317.6 205.5L311.3 214.1Z" fill="white"/>
<path d="M356 214.3H360.7C360.7 210.8 357.8 207.9 354.3 207.9C350.8 207.9 347.9 210.8 347.9 214.3H352.6" fill="#05A357"/>
<path d="M323.1 214.1H328.4C328.4 212.6 327.2 211.5 325.8 211.5C324.3 211.4 323.1 212.6 323.1 214.1Z" fill="#05A357"/>
<path d="M307.8 214.1V219.3C307.8 227.8 312 235.7 319.1 240.5H368.6C375.6 235.7 379.9 227.8 379.9 219.3V214.1H307.8Z" fill="#10462D"/>
<path d="M342.2 207L344.9 204.3C345.5 203.7 345.5 202.7 344.9 202.1L342.2 199.4C341.6 198.8 340.6 198.8 340 199.4L337.3 202.1C336.7 202.7 336.7 203.7 337.3 204.3L340 207C340.7 207.6 341.6 207.6 342.2 207Z" fill="#FABDA5"/>
<path d="M389.2 76.3999L390.9 76.8999L389.2 76.3999Z" fill="#F6BEA4"/>
<path d="M442.4 66.2999C438.9 62.1999 437.5 58.8999 438.7 54.5999L439.8 51.0999L440 50.4999L439.9 50.3999H440L440.6 48.4999V48.3999L440.9 47.4999V47.3999C441.3 46.0999 441.3 44.5999 440.9 43.1999C439.8 38.6999 435.2 35.9999 430.7 37.0999C426.2 38.1999 423.5 42.7999 424.6 47.2999C424.9 48.2999 425.3 49.1999 425.8 49.9999C424.3 49.7999 422.9 49.5999 421.5 49.3999C416.2 48.4999 410.9 47.1999 405.8 45.3999C401.9 43.9999 398.1 42.3999 394.4 40.4999L384.6 35.3999C384.5 35.6999 384.5 35.8999 384.4 36.1999C384.3 36.3999 384.3 36.6999 384.2 36.8999C383.2 41.8999 383.7 46.8999 384.4 50.0999C384.6 51.1999 384.9 52.0999 385.1 52.6999C385.6 54.1999 387.5 59.5999 386.9 60.9999C385.2 64.7999 382.3 70.2999 382.3 70.2999C381.1 72.3999 382.2 73.9999 384.6 74.4999L389.2 75.6999L389.9 75.8999C390.5 76.2999 390.8 77.0999 390.4 77.7999C390.3 77.8999 390.3 77.9999 390.2 78.0999C389.8 78.5999 389.8 79.1999 390 79.5999C390.2 79.8999 390.5 80.1999 390.9 80.2999L392.7 80.6999L393 80.7999L392.6 83.0999C392.5 83.7999 392.9 84.4999 393.5 84.6999L393.8 84.7999L395.8 85.4999L397.4 87.5999C398.2 88.5999 398.6 89.7999 398.6 90.9999C398.6 93.3999 400.3 95.4999 402.6 96.0999C404.8 96.6999 407.2 96.3999 409.2 95.2999L420 89.2999L426.5 103.5C432.2 108.6 456.3 99.3999 459.4 86.7999C459.7 86.6999 442.4 66.2999 442.4 66.2999Z" fill="#FABDA5"/>
<path d="M393.5 80.7999H393L392.6 83.0999C392.5 83.7999 392.9 84.4999 393.5 84.6999L393.8 84.7999L393.9 84.6999C396.3 83.2999 398.2 81.0999 399.1 78.3999L396.6 79.8999C395.8 80.4999 394.7 80.7999 393.5 80.7999Z" fill="#FA9269"/>
<path d="M192.4 128.7C192.2 128.4 191.9 128.1 191.5 127.9L185.7 124.5C179.3 120.8 179.7 118.2 180 112C180.4 105.8 179.8 101.8 168.1 90.8C166.5 89.2 164.7 87.8 162.8 86.5L100.5 132C100.7 132.5 100.9 133 101.1 133.5C104.2 141.1 109.7 147.4 116.8 151.6C117.3 151.9 117.8 152.2 118.2 152.5L118.7 152.9L118.9 153L119.3 153.3L119.5 153.5L119.9 153.8L120.1 154L120.5 154.3L120.7 154.5L121 154.8L121.2 155L121.5 155.3L121.7 155.6L122 155.9L122.2 156.2L122.5 156.6C122.6 156.7 122.7 156.8 122.7 156.9L123 157.3C123.1 157.4 123.1 157.5 123.2 157.6L123.5 158L123.7 158.3L123.9 158.7L124.1 159C124.2 159.1 124.3 159.3 124.3 159.4L124.5 159.7L124.7 160.1C124.8 160.2 124.8 160.3 124.9 160.4L125.1 160.8L125.3 161.1C125.4 161.2 125.4 161.4 125.5 161.5L125.7 161.8C125.8 162.1 126 162.4 126 162.5C126.1 162.6 126.1 162.8 126.2 162.9L126.3 163.3L126.4 163.7C126.4 163.8 126.5 163.9 126.5 164.1C126.6 164.2 126.6 164.4 126.6 164.5L126.7 164.9L126.8 165.3C126.8 165.4 126.9 165.5 126.9 165.7C127 165.8 127 166 127 166.1L127.1 166.5L127.2 166.9C127.3 167 127.2 167.1 127.3 167.3C127.4 167.4 127.4 167.6 127.4 167.7L127.5 168.1L127.6 168.5C127.6 168.6 127.7 168.8 127.6 168.9V171.8L159.7 170.6C160.1 169.8 161.3 168.6 162 168C163.8 166.1 166.2 164.9 168.9 164.8L182.6 164C183.9 163.9 185.2 163.5 186.2 162.7C187.3 161.9 188.1 160.9 188.7 159.7C189.9 156.8 188.3 154.1 187.6 152.2C187.5 151.9 187.4 151.6 187.4 151.3C187.4 151.2 187.4 151.1 187.4 151V150.9C187.4 150.7 187.5 150.4 187.6 150.2L189.3 148C189.8 147.4 189.8 146.5 189.3 145.9L187.6 143.9L189.2 142.2C189.6 141.8 189.7 141.4 189.7 140.9C189.6 140.3 189.3 139.7 188.6 139.5C188.1 139.3 187.7 138.9 187.5 138.4C187.5 138.3 187.4 138.2 187.4 138C187.4 137.8 187.3 137.7 187.3 137.5C187.3 137.2 187.3 136.8 187.5 136.5C187.6 136.2 187.8 135.9 188.1 135.7L192 132.1C192.3 131.8 192.5 131.5 192.7 131.1C192.8 130.7 192.9 130.3 192.9 129.9C192.7 129.5 192.6 129.1 192.4 128.7Z" fill="#99644C"/>
<path d="M123.3 189.2C159.8 189.2 189.3 218.8 189.3 255.2V342.7L153.2 339.5L144.4 337.1" fill="#10462D"/>
<path d="M122.2 197.2H137C148.2 197.2 158.3 203.9 162.7 214.2L180.9 257.2C183.3 262.9 183 269.5 180 274.9L177.6 279.3C174.9 284.2 173.5 287.3 173.5 292.9V318.1H122.2V197.2Z" fill="white"/>
<path d="M93.7002 130.5C94.6002 138.2 91.7002 147.4 86.7002 153.9L84.8002 156.4C80.9002 161.5 79.4002 168.1 80.6002 174.4C81.7002 180 80.6002 185.8 77.7002 190.6C73.8002 197 76.3002 205.6 83.0002 208.4L107.6 218.6L130.4 136.1L98.0002 117.7" fill="black"/>
<path d="M113.5 194L153.4 220.8C155 222.1 157.3 220.5 156.7 218.5L151.3 200.2C151 199.2 151 198.2 151.2 197.1L156.4 177.7C157.5 173.5 159.5 170.4 162.3 167.7L115.5 169.1L113.5 194Z" fill="#99644C"/>
<path d="M163.7 106.7C163.1 111.3 159.9 127.3 148.8 131.4L144.2 139L152.5 151.2C156.8 157.6 155.8 166 150.5 171.5C147.6 174.5 146 178.6 146.1 182.9C146.2 189 141.4 194 135.3 194C124.1 194.3 103.3 193.7 92.0998 194C88.2998 194.1 93.6998 195.6 91.1998 191.8C87.6998 186.5 92.6998 183.8 94.7998 179.6C96.1998 176.6 96.4998 173.2 95.2998 170.1V170L94.8998 169.1C93.2998 165 93.5998 160.3 95.7998 156.5L96.3998 155.4C98.9998 151 98.8998 145.6 96.5998 141.1C93.1998 134.5 93.1998 126.2 93.1998 119V117.8C93.1998 108 97.0998 98.5 103.9 91.6L106.8 88.7C113.7 81.7 123 77.8 132.6 77.8H169.5C177.9 77.8 184.6 84.3 184.4 92.7C184.2 102.3 175 108.1 165.2 105.6C164.6 105.4 163.8 105.9 163.7 106.7Z" fill="black"/>
<path d="M159.2 109.7C158.6 114.3 155.4 130.3 144.3 134.4L139.7 142L148 154.2C152.3 160.6 151.3 169 146 174.5C143.1 177.5 141.5 181.6 141.6 185.9C141.7 192 136.9 197 130.8 197C119.6 197.3 98.7998 196.7 87.5998 197C83.7998 197.1 89.1998 198.6 86.6998 194.8C83.1998 189.5 88.1998 186.8 90.2998 182.6C91.6998 179.6 91.9998 176.2 90.7998 173.1V173L90.3998 172.1C88.7998 168 89.0998 163.3 91.2998 159.5L91.8998 158.4C94.4998 154 94.3998 148.6 92.0998 144.1C88.6998 137.5 88.6998 129.2 88.6998 122V120.8C88.6998 111 92.5998 101.5 99.3998 94.6L102.3 91.7C109.2 84.7 118.5 80.8 128.1 80.8H165C173.4 80.8 180.1 87.3 179.9 95.7C179.7 105.3 170.5 111.1 160.7 108.6C160.1 108.4 159.3 108.9 159.2 109.7Z" fill="black"/>
<path d="M150.9 155.6C146.3 155.6 142.6 151.9 142.6 147.3C142.6 142.7 146.3 139 150.9 139C155.5 139 159.2 142.7 159.2 147.3C159.2 151.9 155.4 155.6 150.9 155.6ZM150.9 141.6C147.7 141.6 145.2 144.2 145.2 147.3C145.2 150.4 147.8 153 150.9 153C154 153 156.6 150.4 156.6 147.3C156.6 144.2 154 141.6 150.9 141.6Z" fill="#05A357"/>
<path d="M154 132C154.1 131.6 154.2 131.2 154.2 130.8C154.7 125.4 152.4 120.7 148.8 120.2C145.1 119.7 140.8 125 141 131.3C141.2 138.1 144.8 143.8 148.7 143.8C152.5 143.8 154 132 154 132Z" fill="#99644C"/>
<path d="M138.6 372V221C138.6 206.1 126.6 194.1 111.7 194.1C103.2 194.1 95.2998 197.9 90.0998 204.5C88.7998 206.2 87.4998 207.8 86.2998 209.4C78.7998 219 74.5998 230.8 74.3998 243.1L71.7998 372H138.6Z" fill="#156A41"/>
<path d="M445.2 372C433.7 331.5 396.4 301.8 352.1 301.8H0V372H445.2Z" fill="#B18977"/>
<path d="M195.9 317.4L196.7 345.6L239.3 337.4L239.9 337.3L260.5 334.4L267.1 317.4H195.9Z" fill="#99644C"/>
<path d="M148.7 317.5L137.8 215.4L80.3999 285.8L109.9 352.2C114.4 362.3 125.8 367.3 136.3 363.7L148.3 357.7C154.6 354.6 161.6 353.4 168.6 354.4L170.6 354.7C178.4 355.8 186.4 354.2 193.2 350.1L197.1 347.7C197.1 347.7 197.2 347.7 197.2 347.6C202.6 344.4 209.2 343.6 215.3 345.1L217.1 345.6V317.4L148.7 317.5Z" fill="#156A41"/>
<path d="M193.8 280.9C193.8 281 193.8 281.1 193.8 281.1H255.5V280.9C255.5 279.6 255.8 278.3 256.3 277.1C257 275.4 257.2 273.5 256.7 271.7C256.2 269.9 255 268.3 253.5 267.3C251.3 265.8 249.8 263.5 249.5 260.8C249.2 259 248.4 257.3 247 256.1C245.6 254.8 243.8 254.2 242 254.2C239.4 254.2 236.9 253.1 235.2 251C234.1 249.6 232.4 248.6 230.6 248.4C230.2 248.3 229.9 248.3 229.5 248.3C228 248.3 226.6 248.7 225.4 249.5C223.2 250.9 220.6 251.3 218.1 250.6C216.3 250.1 214.4 250.2 212.7 251C210.9 251.8 209.6 253.2 208.9 254.9C207.8 257.4 205.7 259.2 203.2 259.9C201.5 260.4 200 261.5 198.9 263.1C197.8 264.8 197.5 266.6 197.8 268.4C198.2 271 197.4 273.7 195.7 275.8C194.5 277.2 193.8 279 193.8 280.9Z" fill="#06C167"/>
<path d="M249.1 296.8C257.6 296.8 264.5 289.7 264.5 281C264.5 272.3 257.6 265.2 249.1 265.2C240.6 265.2 233.7 272.3 233.7 281C233.7 289.7 240.6 296.8 249.1 296.8Z" fill="#10462D"/>
<path d="M249.1 292.1C255.1 292.1 260 287.1 260 281C260 274.9 255.1 269.9 249.1 269.9C243.1 269.9 238.2 274.9 238.2 281C238.2 287.1 243.1 292.1 249.1 292.1Z" fill="#06C167"/>
<path d="M209.8 276.1C212.4 276.1 214.5 273.9 214.5 271.3C214.5 268.7 212.4 266.5 209.8 266.5C207.2 266.5 205.1 268.7 205.1 271.3C205.1 273.9 207.2 276.1 209.8 276.1Z" fill="#FABDA5"/>
<path d="M246.5 298.9H211.7V308.2H246.5V298.9Z" fill="#FFE1D6"/>
<path d="M198.8 293.8L211.8 302.8H246.5L259.5 293.8C262.7 291.6 264.6 287.9 264.6 284.1V281H193.8V284.1C193.8 287.9 195.6 291.6 198.8 293.8Z" fill="#FFE1D6"/>
<path d="M221.2 281H216.6C216.6 272.3 223.5 265.2 232 265.2V269.8C226.1 269.9 221.2 274.9 221.2 281Z" fill="#10462D"/>
<path d="M174.3 110.2C171.1 110.6 168.2 112.4 166.7 115L165.2 117.6C165 118 165.5 118.3 165.9 118L167.3 116.8C169.5 115 172.4 113.8 175.3 113.6L177.5 113.4C178.9 113.3 180 112.2 180 111.1L179.8 111C178.1 110.2 176.2 110 174.3 110.2Z" fill="#010101"/>
<path d="M170 123.7C170 123.7 171 119.1 178.6 117.7C178.7 119.3 176.8 120.1 176.8 120.1C174.2 120.6 172.3 122 170.1 123.6L170 123.7Z" fill="#010101"/>
<path d="M176.34 123.29C176.885 123.203 177.214 122.425 177.074 121.552C176.934 120.679 176.379 120.043 175.834 120.13C175.288 120.218 174.96 120.996 175.099 121.868C175.239 122.741 175.795 123.377 176.34 123.29Z" fill="#010101"/>
<path d="M189.7 140.9C189.6 140.3 189.3 139.7 188.6 139.5C188.4 139.4 188.3 139.3 188.1 139.2L187.8 139.3C187.1 139.4 186.4 139.7 185.8 140.2L181.4 143.2L185.7 147.2C186.6 148.1 187.9 148.4 189.1 148.3L189.3 148C189.8 147.4 189.8 146.5 189.3 145.9L187.6 143.9L189.2 142.2C189.6 141.8 189.7 141.4 189.7 140.9Z" fill="#672A16"/>
<path d="M148.7 317.5L141.6 330.3L156.9 317.5H148.7Z" fill="#10462D"/>
<path d="M217.1 317.4L222.9 340.6L217.1 341.7V317.4Z" fill="#744C3A"/>
<path d="M462.9 90.2999L452.6 78.3999L437.3 87.9999C432 91.3999 428.1 96.6999 426.6 102.8L426.4 103.4L431.2 110L459.3 101.1L462.9 90.2999Z" fill="#156A41"/>
<path d="M454.7 159.3L472.9 216.5H457.6L447.7 218.5L441 122.7L454.7 159.3Z" fill="#10462D"/>
<path d="M375.5 228.5L374.8 228.7C374.2 228.6 373.7 228.4 373.1 228.1L368.1 225.6C365.5 224.3 362.7 223.6 359.8 223.6H358.4C356.4 223.6 354.6 224.5 353.2 225.9C352.4 226.7 351.4 227.1 350.3 227.1H347.3C346.8 227.1 346.4 227 345.9 226.9L335.5 223.2C334.7 222.9 333.9 223 333.2 223.4C331.9 224.3 331.9 226.2 333.1 227.1L343.4 233.3L347.1 235.5C347.8 235.9 347.6 237 346.8 237.1L337.4 238.4H325.9L317.7 236.2L312.5 232.1C311.8 231.5 310.8 231.2 309.9 231.2C308.9 231.2 308.3 232.4 309 233.1L314.5 239.7C314.9 240.2 315.5 240.6 316.1 240.9L323.5 244.5C324.8 245.1 326.3 245.5 327.7 245.5H338.1C341 246.1 343.7 246.9 346.7 246.3C352.7 245.1 358.6 243.7 364.6 242.5L376.2 242.7V228.5H375.5Z" fill="#FABDA5"/>
<path d="M472.9 242.6L443.4 136.8L480.7 131L496.6 224.1C498.3 233.8 490.8 242.6 481 242.6H472.9Z" fill="#FABDA5"/>
<path d="M485.6 127.2C485.5 126.8 477.2 121.8 476.7 121.9L449.2 113.7C448.7 113.8 437.4 123.8 437.4 123.8C437.5 124.1 450 168.2 450.4 168.2L452.4 168C459.6 167.4 465.8 162.6 468.2 155.8L468.7 154.5C468.9 153.9 469.8 153.8 470.1 154.4L471 156.1C474.2 162 480.7 165.6 487.4 165.2L485.6 127.2ZM484.3 160.1C483.9 159.6 483.6 159 483.3 158.5C483.6 159 483.9 159.5 484.3 160.1Z" fill="#156A41"/>
<path d="M401.3 55.7999C401.3 55.7999 397.4 52.1999 389.5 55.9999C390.5 57.4999 392.7 56.9999 392.7 56.9999C395.4 55.7999 398 55.7999 401 55.7999H401.3Z" fill="#010101"/>
<path d="M395.28 59.588C395.822 59.314 395.898 58.3726 395.45 57.4854C395.001 56.5981 394.198 56.101 393.656 56.375C393.114 56.649 393.038 57.5903 393.486 58.4776C393.934 59.3648 394.737 59.862 395.28 59.588Z" fill="#010101"/>
<path d="M385.9 51.3001C386.2 52.1001 387.1 52.6001 387.9 52.4001L394.3 50.7001C395.4 50.4001 396.5 50.2001 397.7 50.1001L399.8 49.9001C400.3 49.9001 400.4 49.2001 399.9 49.0001C396.4 47.7001 392.5 47.5001 388.9 48.5001L387.1 49.0001C386.1 49.3001 385.5 50.4001 385.9 51.3001Z" fill="#744C3A"/>
<path d="M433.7 59.7001C434.639 59.7001 435.4 58.9389 435.4 58C435.4 57.0612 434.639 56.3 433.7 56.3C432.761 56.3 432 57.0612 432 58C432 58.9389 432.761 59.7001 433.7 59.7001Z" fill="white"/>
<path d="M431.8 53.7L431.9 52.3C432 51.1 431.2 50 430 49.7L429 49.4L428.3 45.4C428 43.7 428.9 42 430.4 41.1C431.8 40.4 433.4 40.5 434.7 41.4C436.9 42.9 437.8 45.6 437.2 48.2L435.2 56L431.8 53.7Z" fill="#FA9269"/>
<path d="M438.7 60.1001C437.2 61.8001 434.9 62.6001 432.7 62.1001L432 62.0001L433.1 62.8001C435.2 64.3001 437.9 64.6001 440.2 63.5001L438.7 60.1001Z" fill="#FA9269"/>
<path d="M420 89.2L420.6 88.8C423.6 86.6 425.8 83.5 426.9 80L427.8 77L424.6 99.3L420 89.2Z" fill="#FA9269"/>
<path d="M425.013 113.3C425.805 112.168 425.933 110.892 425.3 110.449C424.666 110.005 423.511 110.563 422.719 111.694C421.927 112.825 421.799 114.101 422.432 114.545C423.065 114.988 424.221 114.431 425.013 113.3Z" fill="#06C167"/>
<path d="M417.618 123.516C418.409 122.384 418.538 121.108 417.905 120.665C417.271 120.221 416.116 120.779 415.324 121.91C414.532 123.041 414.404 124.317 415.037 124.761C415.67 125.204 416.826 124.647 417.618 123.516Z" fill="#06C167"/>
<path d="M464.6 213L476.2 218.5L459.4 194.2L464.6 213Z" fill="#FA9269"/>
<path d="M486.5 220.1L485.1 219.4C471.3 212.6 455.8 210.5 440.8 213.6L375.7 228.7L374.1 242.6H481.8C482.1 242.6 482.4 242.6 482.6 242.6C494.1 241.9 497 225.3 486.5 220.1Z" fill="#FABDA5"/>
<path d="M150.8 134C150.8 134 152.5 124 148.2 123.7C146.7 123.6 145.7 124.9 144.9 126.8C143.2 131.1 144.1 136.1 147 139.8L147.5 140.4L147.3 136.8C147.1 134.7 148.9 133.3 150.8 134Z" fill="#744C3A"/>
<path d="M150.9 139.1C150.7 139.1 150.4 139.1 150.2 139.1C149.6 139.2 149.1 139.7 149.1 140.4C149.1 141.1 149.7 141.7 150.4 141.7C150.6 141.7 150.7 141.7 150.9 141.7C151 141.7 151.2 141.7 151.3 141.7C151.7 141 152.1 140.1 152.4 139.3C151.9 139.1 151.4 139.1 150.9 139.1Z" fill="#05A357"/>
<path d="M146.8 372.5H298.4V366.2H153.1C149.6 366.2 146.8 369 146.8 372.5Z" fill="#CBCBCB"/>
<path d="M276.6 276.4H404.2C409.6 276.4 413.2 281.9 411.2 286.8L375.8 372.3H231.9L269.7 281C270.8 278.3 273.6 276.4 276.6 276.4Z" fill="#CBCBCB"/>
<path d="M281.4 276.4H409C414.4 276.4 418 281.9 416 286.8L380.6 372.3H236.6L274.4 281C275.6 278.3 278.4 276.4 281.4 276.4Z" fill="white"/>
<path opacity="0.36" d="M342.389 330.389C344.605 323.328 341.96 316.21 336.48 314.49C330.999 312.769 324.76 317.099 322.544 324.16C320.327 331.221 322.973 338.339 328.453 340.059C333.933 341.78 340.172 337.45 342.389 330.389Z" fill="#E1E1E1"/>
<path d="M410.5 9.10005C411 9.00005 411.5 9.00005 412 8.90005C434.9 4.90005 457.1 18.9001 465.7 40.2001V40.1001C465.7 39.9001 465.6 39.6001 465.5 39.4001C465.5 39.2001 465.4 39.0001 465.4 38.8001C461.1 17.3001 440.4 1.90005 419 5.60005C418.6 5.70005 418.2 5.70005 417.8 5.80005C414.9 6.40005 412.2 7.30005 409.5 8.60005L409.4 8.70005C408.4 9.20005 407.5 9.70005 406.5 10.2001C407.8 9.70005 409.2 9.30005 410.5 9.10005Z" fill="#99644C"/>
<path d="M169.5 77.8H132.6C124.7 77.8 117 80.5 110.7 85.3C116 82.4 122 80.8 128.1 80.8H165C173.4 80.8 180.1 87.3 179.9 95.7C179.8 99.5 178.3 102.7 176 105C180.9 103 184.4 98.6 184.5 92.7C184.6 84.3 177.9 77.8 169.5 77.8Z" fill="#3D281E"/>
</g>
</g>
<defs>
<clipPath id="clip0">
<rect width="558" height="372" fill="white"/>
</clipPath>
<clipPath id="clip1">
<rect width="558" height="372.5" fill="white"/>
</clipPath>
</defs>
</svg>
